<?xml version="1.0" standalone="no"?>
<!DOCTYPE svg>
<svg version="1.0" xmlns="http://www.w3.org/2000/svg"
 width="150px" height="60px" viewBox="0 0 380.000000 176.000000"
 preserveAspectRatio="xMidYMid meet">

<g transform="translate(0.000000,176.000000) scale(0.100000,-0.100000)"
fill="#000080" stroke="none"> 
<path fill="#778899" d="M640 1363 c-42 -30 -63 -47 -95 -79 -39 -40 -125 -141 -125 -148 0
-2 -13 -19 -29 -36 -16 -18 -35 -44 -42 -58 -21 -41 -117 -178 -136 -193 -15
-13 -16 -11 -9 23 11 58 56 161 122 273 58 102 69 132 54 150 -17 20 -38 19
-101 -7 -60 -24 -114 -59 -173 -110 -35 -30 -38 -36 -27 -56 16 -31 48 -28 65
6 13 25 76 84 115 106 19 12 8 -20 -50 -140 -27 -56 -54 -126 -60 -154 -21
-99 5 -170 62 -170 29 0 73 47 161 172 61 87 88 117 194 224 55 55 111 103
122 106 12 4 22 4 22 2 0 -9 -34 -59 -62 -92 -15 -17 -46 -71 -69 -118 -47
-96 -62 -197 -37 -243 29 -55 115 -45 176 20 l27 29 10 -42 c22 -90 90 -73
238 57 16 14 17 13 17 -18 0 -40 15 -57 50 -57 29 0 54 17 165 109 42 35 78
61 81 58 9 -9 -18 -86 -38 -107 -12 -13 -30 -20 -46 -19 -47 4 -61 -1 -73 -22
-9 -17 -7 -25 12 -45 12 -13 34 -24 48 -24 35 0 152 61 222 114 l56 44 -5 -47
c-4 -44 -2 -49 32 -79 42 -37 57 -36 144 5 90 42 123 121 87 207 -39 92 -158
64 -329 -76 -41 -34 -48 -35 -40 -4 9 39 -14 134 -38 150 -23 16 -58 6 -58
-17 0 -20 -58 -85 -83 -93 -12 -4 -42 -25 -67 -46 -50 -45 -62 -36 -31 23 37
70 22 116 -29 89 -18 -10 -24 -8 -34 6 -10 13 -22 16 -50 11 -49 -8 -119 -44
-153 -79 -30 -31 -43 -35 -43 -13 0 25 -18 17 -63 -28 -82 -83 -119 -103 -131
-72 -9 23 5 74 18 69 12 -5 116 115 116 134 0 6 4 12 8 14 13 5 87 130 117
196 27 60 27 63 10 82 -23 26 -60 26 -82 0 -22 -26 -27 -25 -41 5 -14 31 -64
34 -102 8z m152 -130 c-9 -21 -22 -45 -29 -53 -7 -8 -30 -37 -52 -65 -23 -27
-41 -53 -41 -56 0 -4 -7 -9 -15 -12 -19 -8 34 79 98 161 27 34 51 62 53 62 2
0 -4 -17 -14 -37z m886 -282 c11 -25 11 -34 -2 -59 -17 -32 -77 -82 -99 -82
-46 0 -22 99 35 144 42 33 50 33 66 -3z m-699 -17 c-39 -40 -133 -98 -151 -92
-17 6 70 98 107 114 17 7 41 13 54 14 24 0 24 -1 -10 -36z"/>
<path fill="#778899" d="M2113 1018 c-20 -18 -62 -59 -92 -91 -30 -31 -56 -55 -58 -53 -3 2 3
28 11 57 21 71 20 88 -8 100 -18 9 -31 7 -62 -9 -62 -33 -108 -76 -101 -95 9
-23 20 -21 55 8 17 14 32 25 35 25 2 0 -4 -30 -14 -66 -18 -66 -18 -67 2 -95
31 -44 54 -37 121 35 90 99 136 132 185 135 7 1 17 10 23 21 8 15 6 24 -10 40
-28 28 -43 25 -87 -12z"/>
<path d="M3560 1130 c0 -27 3 -30 30 -30 28 0 30 -2 30 -38 0 -21 -2 -41 -5
-44 -3 -3 -22 3 -43 13 -45 23 -56 23 -109 -1 -56 -25 -83 -70 -83 -138 0 -70
21 -109 73 -133 53 -23 90 -24 129 -1 23 13 32 14 35 5 3 -8 25 -13 59 -13 53
0 54 0 54 30 0 25 -4 30 -25 30 l-25 0 0 175 0 175 -60 0 -60 0 0 -30z m14
-161 c49 -23 58 -97 16 -139 -43 -43 -108 -33 -135 21 -40 77 38 154 119 118z"/>
<path d="M3145 1040 c-95 -29 -141 -154 -87 -238 23 -35 77 -62 125 -62 89 0
157 66 157 154 0 95 -104 173 -195 146z m97 -90 c26 -27 30 -36 25 -67 -8 -49
-38 -77 -82 -77 -50 0 -76 29 -77 84 0 36 5 48 26 67 37 32 71 29 108 -7z"/>
<path d="M2430 1010 c0 -23 4 -30 20 -30 19 0 20 -7 20 -150 l0 -150 -25 0
c-21 0 -25 -5 -25 -30 l0 -30 91 0 90 0 -3 28 c-2 21 -9 28 -30 30 -26 3 -28
7 -28 47 l0 44 28 -15 c62 -32 149 -5 187 59 23 39 22 117 -1 157 -38 64 -120
88 -184 55 -27 -14 -30 -14 -30 0 0 12 -12 15 -55 15 -54 0 -55 0 -55 -30z
m231 -40 c10 -6 26 -24 34 -41 13 -25 14 -37 5 -65 -31 -92 -144 -83 -157 14
-5 36 -2 45 25 72 32 31 60 37 93 20z"/>
<path d="M2800 1010 c0 -27 3 -30 30 -30 l30 0 0 -85 0 -85 -30 0 c-27 0 -30
-3 -30 -30 l0 -30 90 0 90 0 0 30 c0 27 -3 30 -30 30 -30 0 -30 0 -30 60 0 73
22 100 82 100 37 0 38 1 38 36 l0 37 -47 -6 c-32 -3 -53 -12 -65 -27 l-18 -22
0 26 c0 25 -2 26 -55 26 -54 0 -55 0 -55 -30z"/>
<path fill="#00FF00" d="M2300 785 c0 -33 2 -35 35 -35 33 0 35 2 35 35 0 33 -2 35 -35 35
-33 0 -35 -2 -35 -35z"/>
</g>
</svg>
