<?xml version="1.0" standalone="no"?>
<!DOCTYPE svg>
<svg version="1.0" xmlns="http://www.w3.org/2000/svg"
 width="300px" height="80px" viewBox="300 320 200 250"
 preserveAspectRatio="xMidYMid meet">

<g transform="translate(0.000000,800.000000) scale(0.100000,-0.100000)"
fill="#000000" stroke="none">
<path d="M1328 4554 c-15 -8 -29 -22 -31 -31 -6 -21 -33 -184 -48 -288 -6 -38
-17 -97 -26 -130 -8 -33 -21 -94 -28 -135 -8 -41 -20 -93 -29 -115 -8 -22 -15
-52 -16 -68 0 -15 -4 -35 -10 -45 -14 -26 -36 -82 -50 -129 -15 -50 -30 -53
-68 -15 -36 37 -102 118 -102 125 0 3 -14 21 -30 39 -17 18 -30 36 -30 40 0 4
-23 42 -51 85 -75 116 -106 134 -148 89 -25 -27 -24 -30 32 -110 15 -21 27
-45 27 -52 0 -7 10 -24 23 -38 12 -13 29 -37 37 -53 8 -15 27 -41 43 -56 15
-16 27 -33 27 -39 0 -5 41 -49 90 -98 50 -49 90 -91 90 -95 0 -37 -106 -316
-138 -363 -34 -51 -43 -79 -40 -118 3 -36 5 -39 37 -42 50 -5 64 12 135 168
13 30 28 69 32 85 4 17 10 35 14 40 3 6 13 30 20 55 8 25 20 55 28 68 16 25
60 30 68 7 3 -8 25 -17 50 -21 24 -3 49 -12 55 -20 6 -8 24 -14 40 -14 16 0
46 -9 66 -20 21 -11 54 -20 73 -20 20 0 40 -4 46 -10 19 -19 190 -43 299 -43
121 0 253 17 300 38 17 7 46 16 65 20 19 3 45 11 57 17 17 9 25 7 40 -7 16
-16 54 -92 69 -136 3 -9 17 -22 30 -29 20 -11 28 -11 49 0 32 17 33 52 1 120
-26 57 -24 86 10 105 10 5 22 15 27 22 4 6 20 14 36 18 16 3 32 13 35 21 3 8
12 14 21 14 17 0 75 38 88 58 4 6 15 12 24 12 9 0 26 10 38 23 12 12 62 61
111 109 71 68 99 104 131 168 51 97 46 129 -18 130 -30 0 -69 -38 -69 -67 0
-11 -7 -26 -15 -33 -8 -7 -15 -19 -15 -28 0 -18 -147 -162 -166 -162 -8 0 -14
-7 -14 -15 0 -8 -11 -17 -25 -21 -14 -3 -25 -12 -25 -19 0 -7 -8 -15 -17 -18
-10 -4 -45 -22 -78 -41 -33 -20 -68 -36 -77 -36 -10 0 -18 -4 -18 -10 0 -15
-36 -12 -49 3 -7 9 -13 113 -17 303 -3 159 -10 330 -15 381 -5 51 -9 119 -9
151 0 109 -48 192 -111 192 -23 0 -34 -11 -70 -67 -24 -38 -71 -122 -104 -188
-79 -153 -82 -158 -132 -230 -59 -84 -69 -95 -82 -95 -6 0 -11 -7 -11 -15 0
-9 -7 -18 -15 -21 -8 -4 -15 -10 -15 -15 0 -16 -86 -99 -103 -99 -9 0 -24 16
-34 38 -9 20 -20 39 -23 42 -8 7 -36 70 -45 100 -3 14 -10 34 -14 45 -15 38
-51 200 -57 260 -4 33 -10 65 -14 70 -3 6 -12 30 -19 55 -19 63 -31 100 -47
137 -8 17 -14 36 -14 42 0 6 -12 17 -28 25 -23 12 -31 12 -54 0z m80 -395 c16
-107 42 -211 69 -279 40 -104 85 -194 99 -203 8 -4 14 -12 14 -17 0 -22 44
-52 75 -53 26 -1 42 8 71 36 21 20 44 37 51 37 7 0 13 6 13 14 0 8 9 18 20 21
11 3 20 12 20 19 0 8 16 24 35 37 19 13 35 28 35 33 0 5 19 36 43 70 23 34 47
68 52 77 6 9 23 36 40 60 16 24 53 91 82 149 30 58 59 105 66 105 18 0 24 -76
26 -329 1 -126 6 -259 11 -295 5 -36 12 -108 16 -158 6 -85 5 -93 -12 -98 -11
-3 -32 -13 -48 -21 -16 -8 -50 -18 -75 -21 -25 -3 -55 -12 -66 -19 -28 -20
-409 -20 -446 0 -14 7 -49 16 -79 20 -29 4 -62 14 -74 22 -11 8 -30 14 -41 14
-31 0 -129 38 -141 55 -6 8 -23 15 -36 15 -38 0 -51 23 -44 73 4 23 13 55 21
71 8 16 15 38 15 50 0 12 4 26 9 32 9 9 49 144 58 194 2 14 10 48 18 75 21 74
45 210 45 256 0 22 5 50 12 62 11 22 12 22 24 -9 7 -17 17 -60 22 -95z"/>
<path fill= "#FF0000" d= "M1345 3859 c-11 -5 -25 -21 -32 -35 -10 -21 -8 -28 11 -49 31 -34 78
-34 100 0 27 41 21 69 -17 83 -38 14 -36 14 -62 1z"/>
<path fill= "#FF0000" d="M2030 3836 c0 -8 -7 -16 -15 -20 -21 -8 -18 -46 4 -73 22 -26 66 -31
75 -8 3 8 12 15 21 15 22 0 19 56 -5 80 -23 23 -80 27 -80 6z"/>
<path d="M3687 4342 c-10 -10 -17 -24 -17 -31 0 -7 -6 -27 -14 -44 -8 -18 -22
-59 -32 -92 -9 -33 -21 -64 -25 -70 -3 -5 -15 -37 -25 -70 -10 -33 -28 -78
-40 -100 l-22 -40 -108 -6 c-62 -4 -133 -14 -164 -25 -53 -17 -139 -70 -170
-103 -29 -32 -60 -107 -60 -144 0 -66 26 -106 88 -135 49 -22 64 -24 141 -19
99 6 158 28 239 90 52 39 143 153 156 194 4 12 16 33 27 47 19 24 26 26 99 26
74 0 78 -1 84 -24 6 -25 1 -43 -34 -121 -10 -22 -21 -59 -25 -81 -6 -40 -5
-41 26 -48 72 -14 103 -8 126 27 11 17 24 47 28 64 4 18 11 35 16 38 5 4 9 15
9 25 0 10 10 41 23 69 l22 51 88 0 87 0 0 -27 c0 -15 -5 -41 -12 -59 -9 -26
-8 -40 6 -76 33 -86 78 -100 345 -105 165 -3 202 -1 242 13 45 17 50 16 96 -1
56 -22 260 -28 284 -9 25 20 73 23 119 7 64 -22 247 -19 298 5 44 20 53 47 20
56 -13 3 -53 6 -90 6 -60 0 -68 2 -68 19 0 23 23 96 80 251 23 63 50 135 59
160 9 25 20 50 24 57 8 13 -1 45 -16 55 -15 9 -120 -3 -133 -16 -6 -6 -23 -49
-39 -96 -15 -47 -31 -89 -35 -95 -4 -5 -10 -21 -13 -35 -8 -41 -87 -253 -102
-276 -14 -23 -72 -34 -172 -34 -44 0 -53 3 -53 18 0 26 54 200 80 257 5 11 12
31 15 45 4 14 13 39 20 55 18 42 45 131 45 148 0 29 -28 40 -83 33 -60 -8 -73
-22 -102 -112 -9 -27 -22 -62 -29 -79 -7 -16 -33 -88 -56 -160 -24 -71 -51
-146 -61 -166 l-18 -36 -223 4 c-123 2 -229 6 -237 9 -19 6 -8 115 16 155 15
26 23 29 65 29 57 0 67 -14 43 -59 -9 -18 -13 -36 -10 -41 3 -6 35 -10 69 -10
97 0 131 37 110 116 -3 12 -22 30 -42 40 -33 17 -64 19 -287 22 -137 1 -260 5
-272 7 -30 7 -29 28 7 116 16 39 32 86 36 103 3 17 10 36 14 41 5 6 13 30 20
54 10 40 10 46 -6 58 -26 19 -105 16 -130 -5 -19 -15 -60 -115 -109 -269 -17
-51 -34 -86 -49 -95 -6 -4 -44 -8 -84 -8 -66 0 -73 2 -81 22 -9 25 -3 58 10
58 5 0 9 11 9 25 0 13 6 39 14 57 14 32 26 62 32 83 17 53 39 116 50 142 18
41 18 69 -2 77 -9 3 -39 6 -68 6 -39 0 -57 -5 -69 -18z m-207 -551 c0 -57
-129 -241 -169 -241 -6 0 -11 -4 -11 -10 0 -16 -72 -11 -92 7 -25 22 -25 107
1 149 41 67 138 122 219 123 51 1 52 0 52 -28z"/>
<path d="M6168 4265 c-48 -8 -104 -24 -125 -35 -21 -11 -45 -20 -55 -20 -9 0
-18 -3 -20 -7 -1 -5 -22 -21 -46 -37 -97 -66 -178 -182 -202 -289 -16 -72 14
-173 65 -220 42 -39 147 -87 190 -87 20 0 46 -5 58 -12 28 -15 345 -12 364 4
21 17 105 14 135 -6 27 -18 51 -16 159 12 27 7 47 5 75 -6 55 -21 126 -25 219
-12 44 6 99 13 123 17 26 3 56 0 75 -8 48 -21 307 -14 356 9 19 9 37 25 39 35
3 15 -6 17 -80 19 -81 2 -131 4 -154 7 -21 2 -22 26 -3 66 10 21 19 43 19 48
0 5 7 24 16 43 13 28 22 34 48 34 39 0 100 32 104 54 3 13 -5 16 -41 16 -66 0
-71 13 -41 100 29 86 28 114 -3 118 -16 2 -32 -10 -62 -50 -22 -29 -49 -65
-60 -79 -11 -14 -54 -42 -95 -62 -42 -20 -77 -43 -77 -52 -1 -8 -2 -20 -3 -27
-1 -7 10 -15 24 -18 21 -5 25 -11 23 -41 0 -18 -9 -58 -19 -86 -15 -45 -23
-54 -53 -64 -41 -14 -181 -5 -192 13 -4 6 2 31 12 56 25 57 59 161 59 179 0
10 -34 13 -162 13 -139 0 -170 -3 -221 -21 -89 -32 -148 -104 -149 -182 0 -67
-3 -68 -172 -66 -158 1 -249 13 -267 36 -6 7 -17 13 -23 13 -15 0 -45 34 -69
77 -11 21 -17 53 -17 98 0 81 25 145 90 229 67 88 181 145 196 99 4 -10 17
-41 31 -69 27 -56 43 -64 129 -64 35 0 49 6 80 35 34 32 36 38 31 80 -11 106
-113 142 -309 110z m632 -474 c0 -44 -45 -155 -65 -159 -9 -2 -32 -1 -51 3
-33 6 -34 8 -34 51 0 24 9 64 21 89 l21 45 54 0 c53 0 54 -1 54 -29z"/>
<path d="M3943 2923 c-33 -17 -47 -38 -37 -54 3 -5 15 -3 27 6 26 18 77 20
101 2 17 -12 17 -14 -1 -45 -10 -17 -26 -32 -36 -32 -10 0 -20 -7 -23 -15 -3
-8 -15 -17 -27 -21 -12 -4 -35 -16 -52 -28 -16 -11 -31 -21 -32 -21 -1 0 -4
-12 -8 -28 l-7 -27 106 0 c88 0 106 3 106 15 0 11 -11 15 -39 15 -86 0 -93 25
-18 65 28 16 59 38 68 49 37 46 -11 136 -71 135 -14 0 -39 -7 -57 -16z"/>
<path d="M5047 2915 c-44 -31 -49 -50 -9 -41 73 17 88 17 107 2 19 -14 19 -16
3 -43 -9 -15 -25 -30 -35 -32 -10 -2 -22 -10 -26 -17 -4 -8 -22 -20 -40 -28
-40 -17 -87 -60 -87 -80 0 -13 20 -15 115 -15 93 0 115 2 115 14 0 10 -15 15
-52 17 -46 3 -53 6 -56 26 -2 14 3 24 15 29 10 3 35 19 56 36 33 26 37 33 37
75 0 46 -1 48 -40 65 -52 22 -58 22 -103 -8z"/>
<path d="M5310 2931 c0 -5 -13 -14 -30 -20 -16 -5 -30 -15 -30 -20 0 -6 14
-11 30 -11 35 0 38 -13 10 -58 -11 -18 -20 -41 -20 -51 0 -10 -7 -35 -15 -54
-20 -49 -19 -59 7 -55 17 2 24 14 35 63 7 32 20 69 28 82 8 12 15 31 15 41 0
11 7 25 15 32 8 7 15 23 15 36 0 20 -5 24 -30 24 -16 0 -30 -4 -30 -9z"/>
<path d="M4185 2920 c-3 -5 -15 -10 -26 -10 -10 0 -19 -7 -19 -15 0 -9 9 -15
23 -15 32 0 38 -9 25 -34 -7 -11 -13 -23 -13 -26 -3 -16 -29 -87 -35 -95 -12
-14 0 -65 14 -65 7 0 18 22 25 50 7 27 17 52 22 56 5 3 9 18 9 34 0 16 5 32
11 35 10 7 19 26 33 73 7 20 4 22 -28 22 -19 0 -38 -4 -41 -10z"/>
<path d="M4516 2916 c-15 -7 -42 -35 -59 -62 -38 -60 -44 -139 -13 -173 25
-28 84 -28 119 -1 14 11 29 20 34 20 4 0 18 21 31 45 28 58 31 144 4 168 -22
20 -75 21 -116 3z m87 -38 c14 -11 15 -20 6 -61 -6 -27 -17 -51 -25 -54 -8 -3
-14 -10 -14 -15 0 -19 -45 -58 -68 -58 -45 0 -57 90 -17 129 14 13 25 29 25
37 0 30 63 44 93 22z"/>
<path d="M4738 2918 c-32 -11 -38 -38 -9 -38 30 0 32 -13 11 -58 -11 -23 -20
-47 -20 -54 0 -8 -6 -23 -14 -34 -17 -23 -10 -74 10 -74 17 0 29 28 38 93 4
27 14 51 22 54 8 3 14 17 14 32 0 15 4 31 9 37 5 5 12 19 16 32 6 19 3 22 -22
21 -15 0 -40 -5 -55 -11z"/>
<path d="M3544 2871 c-4 -18 -15 -36 -25 -42 -20 -10 -26 -44 -9 -54 5 -3 7
-18 4 -33 -3 -15 -1 -39 5 -54 15 -40 60 -39 95 3 14 17 26 37 26 45 0 13 -3
13 -22 0 -32 -23 -68 -21 -68 3 0 21 42 56 75 62 11 3 20 11 20 19 0 11 -9 14
-32 12 -33 -4 -35 -2 -37 42 -2 33 -26 30 -32 -3z"/>
<path d="M3360 2818 c-26 -28 -25 -46 1 -74 27 -28 19 -54 -17 -54 -39 0 -24
-24 18 -28 71 -6 108 78 46 101 -10 3 -18 13 -18 22 0 16 1 16 38 20 49 5 38
35 -13 35 -22 0 -41 -8 -55 -22z"/>
<path d="M3186 2805 c-37 -28 -53 -63 -47 -103 6 -37 6 -37 60 -40 40 -2 58 1
72 14 29 26 8 38 -34 21 -25 -11 -38 -12 -46 -4 -17 17 -13 27 10 27 23 0 60
18 71 34 4 6 8 23 8 39 0 25 -3 27 -37 27 -21 0 -47 -7 -57 -15z"/>
<path d="M4322 2808 c-7 -7 -12 -17 -12 -24 0 -19 32 -26 47 -11 15 15 8 47
-11 47 -7 0 -17 -5 -24 -12z"/>
<path d="M4882 2808 c-28 -28 -5 -52 36 -37 20 7 21 11 10 29 -15 23 -29 25
-46 8z"/>
</g>
</svg>
