<?xml version="1.0" standalone="no"?>
<!DOCTYPE svg PUBLIC "-//W3C//DTD SVG 20010904//EN"
 "http://www.w3.org/TR/2001/REC-SVG-20010904/DTD/svg10.dtd">
<svg version="1.0" xmlns="http://www.w3.org/2000/svg"
 width="16.000000pt" height="16.000000pt" viewBox="0 0 16.000000 16.000000"
 preserveAspectRatio="xMidYMid meet">

<g transform="translate(0.000000,16.000000) scale(0.100000,-0.100000)"
fill="#000000" stroke="none">
<path d="M46 107 c-6 -25 -9 -27 -24 -16 -16 13 -16 12 0 -6 12 -15 14 -25 7
-40 -9 -17 -8 -18 3 -5 15 17 68 15 81 -3 6 -8 7 -7 4 3 -2 8 4 21 13 30 9 8
10 11 3 6 -17 -11 -24 -5 -26 24 l-1 22 -17 -21 -17 -21 -9 27 -10 28 -7 -28z
m39 -23 c12 15 13 15 18 -4 4 -16 0 -20 -22 -20 -33 0 -42 7 -34 27 5 13 7 13
16 -3 9 -16 11 -16 22 0z"/>
</g>
</svg>
